<?xml version="1.0" encoding="utf-8"?>
<!-- Generator: Adobe Illustrator 27.5.0, SVG Export Plug-In . SVG Version: 6.00 Build 0)  -->
<svg version="1.1" xmlns="http://www.w3.org/2000/svg" xmlns:xlink="http://www.w3.org/1999/xlink" x="0px" y="0px"
	 viewBox="0 0 750 500" style="enable-background:new 0 0 750 500;" xml:space="preserve">
<g id="BACKGROUND">
	<g>
		<g>
			<g>
				<rect style="fill:#FFFFFF;" width="750" height="500"/>
			</g>
		</g>
	</g>
</g>
<g id="OBJECT">
	<g>
		<path style="fill:#33E2B8;" d="M52.196,383.363c0,10.081-18.254,27.862-18.254,27.862s-18.254-17.78-18.254-27.862
			s8.173-18.254,18.254-18.254S52.196,373.281,52.196,383.363z"/>
		<circle style="fill:#271E49;" cx="33.942" cy="383.363" r="10.491"/>
	</g>
	<g>
		<path style="fill:#FF3162;" d="M736.337,383.363c0,10.081-18.254,27.862-18.254,27.862s-18.254-17.78-18.254-27.862
			s8.173-18.254,18.254-18.254S736.337,373.281,736.337,383.363z"/>
		<circle style="fill:#271E49;" cx="718.083" cy="383.363" r="10.491"/>
	</g>
	<g>
		<polygon style="fill:#33E2B8;" points="673.336,324.907 663.472,315.043 673.336,315.043 		"/>
		<polygon style="fill:#33E2B8;" points="310.465,33.503 300.601,23.639 310.465,23.639 		"/>
		<polygon style="fill:#2A59FF;" points="99.018,117.373 85.068,117.373 92.043,124.348 		"/>
		<polygon style="fill:#F9D60C;" points="64.24,48.841 54.376,58.705 54.376,48.841 		"/>
		<rect x="463.959" y="22.395" style="fill:#F9D60C;" width="6.857" height="6.857"/>
		<rect x="52.775" y="299.517" style="fill:#F9D60C;" width="6.857" height="6.857"/>
		
			<rect x="30.655" y="266.377" transform="matrix(0.7071 -0.7071 0.7071 0.7071 -180.7984 103.1253)" style="fill:#33E2B8;" width="6.857" height="6.857"/>
		
			<rect x="671.881" y="35.041" transform="matrix(0.7071 -0.7071 0.7071 0.7071 170.5906 488.7825)" style="fill:#33E2B8;" width="6.857" height="6.857"/>
		
			<rect x="643.331" y="59.583" transform="matrix(0.7071 -0.7071 0.7071 0.7071 144.8746 475.7829)" style="fill:#2A59FF;" width="6.857" height="6.857"/>
		
			<rect x="108.444" y="137.791" transform="matrix(0.7071 -0.7071 0.7071 0.7071 -67.0904 120.4684)" style="fill:#F9D60C;" width="6.857" height="6.857"/>
		
			<rect x="718.215" y="197.463" transform="matrix(0.7071 -0.7071 0.7071 0.7071 69.3127 569.1189)" style="fill:#33E2B8;" width="6.857" height="6.857"/>
		<rect x="700.398" y="287.14" style="fill:#FF3162;" width="6.857" height="6.857"/>
		<rect x="264.431" y="45.413" style="fill:#FF3162;" width="6.857" height="6.857"/>
		<path style="fill:#FF3162;" d="M87.053,211.119c0,1.096-0.889,1.985-1.985,1.985s-1.985-0.889-1.985-1.985
			c0-1.096,0.889-1.985,1.985-1.985S87.053,210.023,87.053,211.119z"/>
		<path style="fill:#F9D60C;" d="M685.364,143.11c0,1.096-0.889,1.985-1.985,1.985c-1.096,0-1.985-0.889-1.985-1.985
			c0-1.096,0.889-1.985,1.985-1.985C684.475,141.125,685.364,142.013,685.364,143.11z"/>
		<path style="fill:#F9D60C;" d="M675.321,274.051c0,1.096-0.889,1.985-1.985,1.985c-1.096,0-1.985-0.889-1.985-1.985
			c0-1.096,0.889-1.985,1.985-1.985C674.432,272.066,675.321,272.954,675.321,274.051z"/>
		<path style="fill:#FF3162;" d="M445.518,58.92c0,1.096-0.889,1.985-1.985,1.985c-1.096,0-1.985-0.889-1.985-1.985
			c0-1.096,0.889-1.985,1.985-1.985C444.629,56.935,445.518,57.824,445.518,58.92z"/>
		<path style="fill:#FF3162;" d="M98.399,31.436c0,1.582-1.282,2.864-2.864,2.864c-1.582,0-2.864-1.282-2.864-2.864
			c0-1.582,1.282-2.864,2.864-2.864C97.116,28.571,98.399,29.854,98.399,31.436z"/>
	</g>
	<g>
		<g>
			<g>
				<path style="fill:none;stroke:#271E49;stroke-miterlimit:10;" d="M32.93,424.205c0,0,1.076-1.878,3.57-4.812"/>
				<path style="fill:none;stroke:#271E49;stroke-miterlimit:10;stroke-dasharray:12.0377,12.0377;" d="M45.093,410.985
					c21.329-17.714,74.378-43.243,187.061-9.461c109.042,32.69,193.998,30.467,267.43-8.326
					c68.852-36.373,163.035-22.485,209.328,22.202"/>
				<path style="fill:none;stroke:#271E49;stroke-miterlimit:10;" d="M713.121,419.692c1.367,1.474,2.685,2.979,3.949,4.514"/>
			</g>
		</g>
		<path style="fill:#271E49;" d="M36.49,424.313c0,1.966-1.594,3.56-3.56,3.56s-3.56-1.594-3.56-3.56c0-1.966,1.594-3.56,3.56-3.56
			S36.49,422.347,36.49,424.313z"/>
		<path style="fill:#271E49;" d="M720.631,424.313c0,1.966-1.594,3.56-3.56,3.56c-1.966,0-3.56-1.594-3.56-3.56
			c0-1.966,1.594-3.56,3.56-3.56C719.037,420.753,720.631,422.347,720.631,424.313z"/>
	</g>
	<g>
		<path style="fill:#E5E5E5;" d="M554.953,500l-33.231-101.633c0,0,68.835-20.825,97.319-10.2l17.055,59.284l47.282-4.877
			L703.827,500H554.953z"/>
		<path style="fill:#E5E5E5;" d="M629.195,388.167l15.297,50.844l62.764-6.857C707.255,432.154,680.888,393.234,629.195,388.167z"/>
		<polygon style="fill:#E5E5E5;" points="696.712,442.573 723.613,439.011 750,500 718.083,500 		"/>
		<path style="fill:#E5E5E5;" d="M399.117,435.319l8.012,25.319l111.297-25.319l-9.495-32.176
			C508.931,403.143,483.941,422.659,399.117,435.319z"/>
		<polygon style="fill:#E5E5E5;" points="319.929,491.758 466.063,460.637 480.184,500 319.929,500 		"/>
		<polygon style="fill:#E5E5E5;" points="492.766,500 477.931,460.637 519.469,450.352 537.151,500 		"/>
		<path style="fill:#E5E5E5;" d="M0,465.648c0,0,75.968-57.758,122.999-62.505l19.682,62.505L67.173,500H0V465.648z"/>
		<polygon style="fill:#E5E5E5;" points="99.018,500 146.575,480.319 154.363,500 		"/>
		<path style="fill:#E5E5E5;" d="M142.682,398.367L174.045,500h130.666l-2.314-66.431c0,0-34.557-1.711-58.755-10.156
			C211.638,412.242,170.148,394.835,142.682,398.367z"/>
		<path style="fill:#E5E5E5;" d="M317.578,435.648l2.351,43.056l71.299-15.033l-4.614-26.11
			C386.614,437.56,353.974,440.395,317.578,435.648z"/>
	</g>
	<g>
		<g>
			<g>
				<g>
					<g>
						<polygon style="fill:#FF3162;" points="333.83,78.405 328.34,78.405 328.34,268.797 333.83,268.797 339.321,268.797 
							339.321,78.405 						"/>
						<polygon style="fill:#FF3162;" points="217.832,78.405 212.341,78.405 212.341,268.797 217.832,268.797 223.322,268.797 
							223.322,78.405 						"/>
					</g>
					<g>
						<polygon style="fill:#271E49;" points="322.849,78.405 317.358,78.405 317.358,268.797 322.849,268.797 328.34,268.797 
							328.34,78.405 						"/>
						<rect x="201.36" y="78.405" style="fill:#271E49;" width="10.981" height="190.392"/>
						<rect x="212.341" y="86.793" style="fill:#271E49;" width="105.017" height="182.005"/>
					</g>
				</g>
				<g>
					<g>
						<rect x="339.376" y="86.793" style="fill:#F9D60C;" width="311.38" height="182.005"/>
						<rect x="347.469" y="93.86" style="fill:#2A59FF;" width="296.22" height="167.871"/>
					</g>
					<g>
						<line style="fill:none;stroke:#FFFFFF;stroke-miterlimit:10;" x1="347.523" y1="108.505" x2="643.689" y2="108.505"/>
						<line style="fill:none;stroke:#FFFFFF;stroke-miterlimit:10;" x1="347.523" y1="131.602" x2="643.689" y2="131.602"/>
						<line style="fill:none;stroke:#FFFFFF;stroke-miterlimit:10;" x1="347.523" y1="154.699" x2="643.689" y2="154.699"/>
						<line style="fill:none;stroke:#FFFFFF;stroke-miterlimit:10;" x1="347.523" y1="177.795" x2="643.689" y2="177.795"/>
						<line style="fill:none;stroke:#FFFFFF;stroke-miterlimit:10;" x1="347.523" y1="200.892" x2="643.689" y2="200.892"/>
						<line style="fill:none;stroke:#FFFFFF;stroke-miterlimit:10;" x1="347.523" y1="223.988" x2="643.689" y2="223.988"/>
						<line style="fill:none;stroke:#FFFFFF;stroke-miterlimit:10;" x1="347.523" y1="247.085" x2="643.689" y2="247.085"/>
					</g>
				</g>
			</g>
			<g>
				
					<ellipse transform="matrix(0.7124 -0.7018 0.7018 0.7124 -115.1171 357.2718)" style="fill:#271E49;" cx="378.35" cy="319.091" rx="45.745" ry="45.226"/>
				
					<ellipse transform="matrix(0.7124 -0.7018 0.7018 0.7124 -82.1474 437.7379)" style="fill:#271E49;" cx="492.977" cy="319.091" rx="45.745" ry="45.226"/>
			</g>
			<g>
				<polygon style="fill:#271E49;" points="601.868,326.67 106.443,326.67 106.443,268.797 625.818,268.797 625.818,285.293 
					601.868,285.666 				"/>
				<line style="fill:none;stroke:#FFFFFF;stroke-miterlimit:10;" x1="601.868" y1="285.666" x2="211.779" y2="285.666"/>
			</g>
			<g>
				
					<ellipse transform="matrix(0.7124 -0.7018 0.7018 0.7124 -179.2009 200.894)" style="fill:#271E49;" cx="155.511" cy="319.091" rx="45.745" ry="45.226"/>
			</g>
			<g>
				
					<ellipse transform="matrix(0.7124 -0.7018 0.7018 0.7124 -147.608 278.0125)" style="fill:#271E49;" cx="265.376" cy="319.091" rx="45.745" ry="45.226"/>
				
					<ellipse transform="matrix(0.7123 -0.7018 0.7018 0.7123 -147.6107 278.0395)" style="fill:#FFFFFF;" cx="265.376" cy="319.091" rx="22.557" ry="22.302"/>
				
					<ellipse transform="matrix(0.7123 -0.7018 0.7018 0.7123 -147.611 278.0425)" style="fill:none;stroke:#FFFFFF;stroke-miterlimit:10;" cx="265.376" cy="319.091" rx="32.476" ry="32.107"/>
			</g>
			<path style="fill:#2A59FF;" d="M336.139,314.198c-11.934,0-12.668-32.929,0-32.929h46.229c12.668,0,11.934,32.929,0,32.929
				H336.139z"/>
			<path style="fill:none;stroke:#FFFFFF;stroke-miterlimit:10;" d="M338.295,281.269c12.669,0,11.934,32.929,0,32.929"/>
			<path style="fill:none;stroke:#FFFFFF;stroke-miterlimit:10;" d="M376.336,281.269c12.668,0,11.934,32.929,0,32.929"/>
			<g>
				<g>
					
						<ellipse transform="matrix(0.7124 -0.7018 0.7018 0.7124 -94.537 407.5076)" style="fill:#271E49;" cx="449.899" cy="319.091" rx="45.745" ry="45.226"/>
					
						<ellipse transform="matrix(0.7124 -0.7018 0.7018 0.7124 -94.5356 407.5159)" style="fill:#FFFFFF;" cx="449.899" cy="319.091" rx="22.558" ry="22.302"/>
					
						<ellipse transform="matrix(0.7124 -0.7018 0.7018 0.7124 -94.5328 407.5335)" style="fill:none;stroke:#FFFFFF;stroke-miterlimit:10;" cx="449.899" cy="319.091" rx="32.476" ry="32.107"/>
				</g>
				<g>
					<path style="fill:#FF3162;" d="M482.488,284.261v0.467c0,0-44.165,0-51.988,0c-16.417,0-12.53,27.887-25.371,29.371
						l-14.89-0.014l-1.399,0.078c3.745-9.025,12.714-45.364,29.576-45.364c7.83,0,59.804,0,59.804,0
						C482.46,268.798,482.488,272.607,482.488,284.261z"/>
				</g>
			</g>
			<g>
				<g>
					
						<ellipse transform="matrix(0.7124 -0.7018 0.7018 0.7124 -61.577 487.921)" style="fill:#271E49;" cx="564.526" cy="319.091" rx="45.745" ry="45.226"/>
					
						<ellipse transform="matrix(0.7123 -0.7019 0.7019 0.7123 -61.5496 488.0223)" style="fill:#FFFFFF;" cx="564.526" cy="319.091" rx="22.558" ry="22.302"/>
					
						<ellipse transform="matrix(0.7124 -0.7018 0.7018 0.7124 -61.5737 487.9328)" style="fill:none;stroke:#FFFFFF;stroke-miterlimit:10;" cx="564.526" cy="319.091" rx="32.476" ry="32.107"/>
				</g>
				<g>
					<path style="fill:#FF3162;" d="M597.115,284.261v0.467c0,0-44.165,0-51.988,0c-16.417,0-12.53,27.887-25.371,29.371
						l-14.89-0.014l-1.399,0.078c3.746-9.025,12.714-45.364,29.576-45.364c7.83,0,59.804,0,59.804,0
						C597.087,268.798,597.115,272.607,597.115,284.261z"/>
				</g>
			</g>
			<g>
				<g>
					<g>
						<path style="fill:#2A59FF;" d="M159.869,252.586c0,0,0-52.284,0-58.994c0,0,9.986-2.609,13.194,0v58.994H159.869z"/>
						<path style="fill:#2A59FF;" d="M163.468,196.946c0,0-1.566-55.356-1.33-61.787c0.236-6.43,6.591-10.065,17.832-10.065
							l-0.216,5.871c0,0-10.845-0.559-11.05,5.032c-0.205,5.592,0.12,60.948,0.12,60.948H163.468z"/>
					</g>
					<g>
						<path style="fill:none;stroke:#FFFFFF;stroke-miterlimit:10;" d="M163.355,192.878c0,0,2.467-0.921,5.47-0.435"/>
					</g>
				</g>
				<g>
					<path style="fill:none;stroke:#271E49;stroke-miterlimit:10;" d="M140.564,172.846h-15.52c-4.295,0-7.776,3.482-7.776,7.776
						v30.496"/>
					<path style="fill:#271E49;" d="M117.267,204.123L117.267,204.123c-2.991,0-5.416-2.425-5.416-5.416v-13.449
						c0-2.991,2.425-5.416,5.416-5.416l0,0c2.991,0,5.416,2.425,5.416,5.416v13.449
						C122.684,201.699,120.259,204.123,117.267,204.123z"/>
				</g>
				<g>
					<path style="fill:#FF3162;" d="M169.92,150.118c0,0,20.703-29.702,26.383-32.871c5.68-3.168,91.957-2.112,98.952,0
						c6.995,2.112,5.814,32.871,5.814,32.871H169.92z"/>
					<path style="fill:none;stroke:#FFFFFF;stroke-miterlimit:10;" d="M295.254,117.247c0,0-16.797-1.056-20.64,5.808
						c-3.844,6.864-12.005,27.062-12.005,27.062"/>
				</g>
				<g>
					<path style="fill:#F9D60C;" d="M301.114,268.048v0.466c0,0-55.152,0-62.975,0c-16.417,0-12.53,27.887-25.371,29.371
						c-0.353,0.042-0.714,0.064-1.095,0.064h-15.194c-30.876,0-97.173,0-97.173,0s0-10.777,0-23.053v-22.869
						c0-6.947,7.675-23.293,17.053-40.77c11.682-21.802,26.007-45.35,31.35-54.572c0.891-1.541,1.534-2.686,1.873-3.35
						c3.958-7.83,139.978-6.714,146.134-5.597C301.651,148.819,301.164,259.935,301.114,268.048z"/>
				</g>
				<g>
					<g>
						<path style="fill:#271E49;" d="M216.818,156.685l-31.519,54.572h-68.94c11.682-21.802,26.007-45.35,31.35-54.572H216.818z"/>
					</g>
					<g>
						<g>
							<path style="fill:#FFFFFF;" d="M174.741,156.685c-0.572,0.763-1.138,1.392-1.675,1.859
								c-6.841,5.993-17.003,7.102-16.297,22.085c0.339,6.693-5.251,21.35-9.442,30.629H134.89
								c5.887-10.466,12.558-23.929,12.516-31.166c-0.057-12.989,11.385-17.357,16.155-23.357c0.014-0.014,0.021-0.028,0.035-0.049
								H174.741z"/>
						</g>
						<g>
							<path style="fill:#FFFFFF;" d="M207.822,156.685c-0.572,0.763-1.138,1.392-1.675,1.859
								c-6.841,5.993-17.003,7.102-16.297,22.085c0.339,6.693-5.251,21.35-9.442,30.629h-12.438
								c5.887-10.466,12.558-23.929,12.516-31.166c-0.057-12.989,11.385-17.357,16.155-23.357c0.014-0.014,0.021-0.028,0.035-0.049
								H207.822z"/>
						</g>
					</g>
				</g>
				<g>
					<path style="fill:#2A59FF;" d="M158.83,262.697h24.937c0,0-2.043,12.201-4.093,12.201c-3.219,0-20.844,0-20.844,0V262.697z"/>
					<rect x="150.07" y="262.697" style="fill:#FF3162;" width="6.71" height="12.201"/>
					<path style="fill:none;stroke:#FFFFFF;stroke-miterlimit:10;" d="M147.833,260.131h40.063c0,0-2.693,17.334-5.396,17.334
						c-4.243,0-34.668,0-34.668,0V260.131z"/>
				</g>
				<g>
					<path style="fill:#2A59FF;" d="M106.443,262.699v12.198c0,0-3.208,0-7.138,0v-12.198H106.443z"/>
					<rect x="108.496" y="262.697" style="fill:#FF3162;" width="6.71" height="12.201"/>
					<path style="fill:none;stroke:#FFFFFF;stroke-miterlimit:10;" d="M99.306,277.465c4.243,0,18.137,0,18.137,0v-17.334H99.244"/>
				</g>
				<g>
					<path style="fill:#FF3162;" d="M309.651,268.048v0.466c0,0-63.689,0-71.512,0c-16.417,0-12.53,27.887-25.371,29.371
						l-14.891-0.014l-1.399,0.078c3.745-9.025,12.714-45.364,29.576-45.364c7.83,0,79.328,0,79.328,0
						C309.623,252.586,309.651,256.395,309.651,268.048z"/>
				</g>
				<g>
					<path style="fill:none;stroke:#FFFFFF;stroke-miterlimit:10;" d="M167.971,297.947c0,0,0-28.866,0-45.922
						c0-17.056,50.552-97.247,54.51-105.075"/>
				</g>
				<g>
					<g>
						<path style="fill:#271E49;" d="M286.224,156.685v43.618c0,0-10.94-0.254-21.244-0.424c-3.788-0.057-7.484-0.106-10.523-0.127
							c-0.926-0.007-1.795-0.007-2.579-0.007c-8.226,0-16.24,3.852-20.89,7.124c-1.223,0.855-2.212,1.682-2.912,2.382
							c-1.59,1.59-6.473,2.007-11.173,2.007h-0.226c-5.131-0.014-9.972-0.516-9.972-0.516l24.721-54.056H286.224z"/>
					</g>
					<g>
						<path style="fill:#FFFFFF;" d="M286.224,156.685v5.477c-1.039,1.625-2.035,2.905-2.961,3.703
							c-6.834,5.993-17.011,7.102-16.254,22.085c0.163,3.3-0.657,7.456-2.028,11.929c-3.788-0.057-7.484-0.106-10.523-0.127
							c1.936-4.791,3.208-9.173,3.187-12.339c-0.092-12.982,11.385-17.343,16.148-23.357c1.06-1.329,2.304-4.007,3.604-7.371
							H286.224z"/>
						<path style="fill:#FFFFFF;" d="M256.528,156.685c-0.572,0.763-1.138,1.392-1.675,1.859
							c-6.841,5.993-17.003,7.102-16.297,22.085c0.339,6.693-3.378,16.961-7.569,26.24c-1.223,0.855-2.212,1.682-2.912,2.382
							c-1.59,1.59-6.473,2.007-11.173,2.007h-0.226c5.887-10.466,12.558-23.929,12.516-31.166
							c-0.057-12.989,11.385-17.357,16.155-23.357c0.014-0.014,0.021-0.028,0.035-0.049H256.528z"/>
					</g>
					<g>
						<line style="fill:none;stroke:#FFFFFF;stroke-miterlimit:10;" x1="281.192" y1="156.685" x2="281.192" y2="200.191"/>
					</g>
				</g>
				<g>
					<path style="fill:none;stroke:#FFFFFF;stroke-miterlimit:10;" d="M206.705,210.741v41.284c0,0,4.593-8.669,15.776-12.024
						c11.183-3.355,63.743-2.796,63.743-2.796v-36.902"/>
					
						<rect x="273.422" y="205.147" transform="matrix(-1 -1.224647e-16 1.224647e-16 -1 552.5636 412.0598)" style="fill:#FFFFFF;" width="5.72" height="1.765"/>
				</g>
				<g>
					<g>
						<path style="fill:#2A59FF;" d="M292.189,252.586c0,0,0-52.284,0-58.994c0,0,9.986-2.609,13.194,0v58.994H292.189z"/>
						<path style="fill:#2A59FF;" d="M295.787,196.946c0,0-1.566-55.356-1.33-61.787c0.236-6.43,6.591-10.065,17.832-10.065
							l-0.216,5.871c0,0-10.845-0.559-11.05,5.032c-0.205,5.592,0.12,60.948,0.12,60.948H295.787z"/>
					</g>
					<g>
						<path style="fill:none;stroke:#FFFFFF;stroke-miterlimit:10;" d="M295.674,192.878c0,0,2.467-0.921,5.47-0.435"/>
					</g>
				</g>
				<g>
					<path style="fill:none;stroke:#271E49;stroke-miterlimit:10;" d="M224.035,172.846h-9.554c-4.295,0-7.776,3.482-7.776,7.776
						v30.496"/>
					<path style="fill:#271E49;" d="M206.705,204.123L206.705,204.123c-2.991,0-5.416-2.425-5.416-5.416v-13.449
						c0-2.991,2.425-5.416,5.416-5.416l0,0c2.991,0,5.416,2.425,5.416,5.416v13.449
						C212.121,201.699,209.696,204.123,206.705,204.123z"/>
				</g>
				<g>
					<line style="fill:none;stroke:#271E49;stroke-miterlimit:10;" x1="120.508" y1="219.313" x2="175.448" y2="219.313"/>
					<line style="fill:none;stroke:#271E49;stroke-miterlimit:10;" x1="116.615" y1="226.164" x2="171.554" y2="226.164"/>
					<line style="fill:none;stroke:#271E49;stroke-miterlimit:10;" x1="112.721" y1="233.016" x2="167.661" y2="233.016"/>
					<line style="fill:none;stroke:#271E49;stroke-miterlimit:10;" x1="108.827" y1="239.867" x2="163.767" y2="239.867"/>
					<line style="fill:none;stroke:#271E49;stroke-miterlimit:10;" x1="104.933" y1="246.719" x2="159.873" y2="246.719"/>
				</g>
				<g>
					<g>
						<path style="fill:#2A59FF;" d="M99.303,303.186c6.873,0,108.08,0,111.435,0c3.355,0-2.237,30.194-5.032,31.313
							c-2.796,1.118-102.675,0-105.308,0C98.861,334.499,99.303,303.186,99.303,303.186z"/>
						<path style="fill:none;stroke:#FFFFFF;stroke-miterlimit:10;" d="M191.524,303.186c3.355,0-2.237,30.194-5.032,31.313"/>
					</g>
					<g>
						<rect x="166.588" y="314.198" style="fill:#F9D60C;" width="17.179" height="9.117"/>
						<rect x="99.306" y="314.198" style="fill:#F9D60C;" width="8.528" height="9.117"/>
					</g>
				</g>
			</g>
		</g>
		<g>
			<path style="fill:#E5E5E5;" d="M569.764,364.435c0,0,56.845-22.215,69.083-22.215s7.208,11.107,7.208,11.107
				s37.195-14.272,46.431-11.107c9.236,3.165-19.004,22.215-19.004,22.215H569.764z"/>
		</g>
	</g>
</g>
</svg>
